<mxfile host="Electron" modified="2025-04-26T15:46:35.491Z" agent="Mozilla/5.0 (Macintosh; Intel Mac OS X 10_15_7) AppleWebKit/537.36 (KHTML, like Gecko) draw.io/24.5.1 Chrome/124.0.6367.207 Electron/30.0.6 Safari/537.36" version="24.5.1" etag="2oD060LcLbay0mfv5yLW" type="device">
  <diagram id="tekton-cicd-flow" name="CI/CD Flow">
    <mxGraphModel dx="2440" dy="926" grid="1" gridSize="10" guides="1" tooltips="1" connect="1" arrows="1" fold="1" page="1" pageScale="1" pageWidth="850" pageHeight="1100" math="0" shadow="0">
      <root>
        <mxCell id="0" />
        <mxCell id="1" parent="0" />
        <mxCell id="2" value="GitHub Push" style="ellipse;whiteSpace=wrap;html=1;fillColor=#F3F8FE;strokeColor=#0366D6;fontSize=14;fontStyle=1;" parent="1" vertex="1">
          <mxGeometry x="80" y="80" width="120" height="60" as="geometry" />
        </mxCell>
        <mxCell id="3" value="EventListener Tekton (Webhook)" style="rounded=1;whiteSpace=wrap;html=1;fillColor=#E1F5FE;strokeColor=#0288D1;fontSize=14;" parent="1" vertex="1">
          <mxGeometry x="260" y="80" width="200" height="60" as="geometry" />
        </mxCell>
        <mxCell id="4" value="TriggerTemplate + PipelineRun" style="rounded=1;whiteSpace=wrap;html=1;fillColor=#FFF3E0;strokeColor=#FF9800;fontSize=14;" parent="1" vertex="1">
          <mxGeometry x="500" y="80" width="200" height="60" as="geometry" />
        </mxCell>
        <mxCell id="5" value="Task Kaniko Build/Push&lt;div&gt;Harbor (registry.phantombyte.uk)&lt;/div&gt;" style="rounded=1;whiteSpace=wrap;html=1;fillColor=#E8F5E9;strokeColor=#388E3C;fontSize=14;" parent="1" vertex="1">
          <mxGeometry x="740" y="80" width="220" height="60" as="geometry" />
        </mxCell>
        <mxCell id="6" value="Deployment K8s&lt;div&gt;(Usa imagem: latest)&lt;/div&gt;" style="rounded=1;whiteSpace=wrap;html=1;fillColor=#FCE4EC;strokeColor=#C2185B;fontSize=14;" parent="1" vertex="1">
          <mxGeometry x="1000" y="80" width="200" height="60" as="geometry" />
        </mxCell>
        <mxCell id="7" style="edgeStyle=orthogonalEdgeStyle;rounded=0;orthogonalLoop=1;jettySize=auto;html=1;endArrow=block;endFill=1;strokeColor=#0366D6;" parent="1" source="2" target="3" edge="1">
          <mxGeometry relative="1" as="geometry" />
        </mxCell>
        <mxCell id="8" style="edgeStyle=orthogonalEdgeStyle;rounded=0;orthogonalLoop=1;jettySize=auto;html=1;endArrow=block;endFill=1;strokeColor=#0288D1;" parent="1" source="3" target="4" edge="1">
          <mxGeometry relative="1" as="geometry" />
        </mxCell>
        <mxCell id="9" style="edgeStyle=orthogonalEdgeStyle;rounded=0;orthogonalLoop=1;jettySize=auto;html=1;endArrow=block;endFill=1;strokeColor=#FF9800;" parent="1" source="4" target="5" edge="1">
          <mxGeometry relative="1" as="geometry" />
        </mxCell>
        <mxCell id="10" style="edgeStyle=orthogonalEdgeStyle;rounded=0;orthogonalLoop=1;jettySize=auto;html=1;endArrow=block;endFill=1;strokeColor=#388E3C;" parent="1" source="5" target="6" edge="1">
          <mxGeometry relative="1" as="geometry" />
        </mxCell>
      </root>
    </mxGraphModel>
  </diagram>
</mxfile>
